<?xml version="1.0"?>
<!-- Generated by SVGo -->
<svg width="1024" height="384"
     xmlns="http://www.w3.org/2000/svg" 
     xmlns:xlink="http://www.w3.org/1999/xlink">
<rect x="0" y="0" width="1024" height="384" style="fill:white;stroke-width:2px;stroke:lightgray"/>
<g style="font-size:20px;font-family:sans-serif">
<text x="5" y="5" style="font-size:150%"></text>
<g style="font-style:italic;font-size:75%">
<rect x="515" y="73" width="2" height="20" style="fill-opacity:0.3;fill:red"/>
<text x="510" y="88" style="text-anchor:end">+0.67%</text>
</g>
<text x="5" y="93" style="text-anchor:start">BenchmarkLexerBasic</text>
<g style="font-style:italic;font-size:75%">
<rect x="517" y="99" width="27" height="20" style="fill-opacity:0.3;fill:green"/>
<text x="549" y="114" style="text-anchor:start">-9.01%</text>
</g>
<text x="5" y="119" style="text-anchor:start">BenchmarkLexerTypeSelector</text>
<g style="font-style:italic;font-size:75%">
<rect x="517" y="125" width="26" height="20" style="fill-opacity:0.3;fill:green"/>
<text x="548" y="140" style="text-anchor:start">-8.67%</text>
</g>
<text x="5" y="145" style="text-anchor:start">BenchmarkLexerIdSelector</text>
<g style="font-style:italic;font-size:75%">
<rect x="517" y="151" width="21" height="20" style="fill-opacity:0.3;fill:green"/>
<text x="543" y="166" style="text-anchor:start">-7.11%</text>
</g>
<text x="5" y="171" style="text-anchor:start">BenchmarkLexerClassSelector</text>
<g style="font-style:italic;font-size:75%">
<rect x="502" y="177" width="15" height="20" style="fill-opacity:0.3;fill:red"/>
<text x="497" y="192" style="text-anchor:end">+5.18%</text>
</g>
<text x="5" y="197" style="text-anchor:start">BenchmarkLexerAttributeSelector</text>
<g style="font-style:italic;font-size:75%">
<rect x="512" y="203" width="5" height="20" style="fill-opacity:0.3;fill:red"/>
<text x="507" y="218" style="text-anchor:end">+1.84%</text>
</g>
<text x="5" y="223" style="text-anchor:start">BenchmarkLexerImportRule</text>
<g style="font-style:italic;font-size:75%">
<rect x="517" y="229" width="25" height="20" style="fill-opacity:0.3;fill:green"/>
<text x="547" y="244" style="text-anchor:start">-8.34%</text>
</g>
<text x="5" y="249" style="text-anchor:start">BenchmarkLexerVariableDeclaration</text>
<g style="font-style:italic;font-size:75%">
<rect x="507" y="255" width="10" height="20" style="fill-opacity:0.3;fill:red"/>
<text x="502" y="270" style="text-anchor:end">+3.40%</text>
</g>
<text x="5" y="275" style="text-anchor:start">BenchmarkParserClassSelector</text>
<g style="font-style:italic;font-size:75%">
<rect x="517" y="281" width="8" height="20" style="fill-opacity:0.3;fill:green"/>
<text x="530" y="296" style="text-anchor:start">-2.73%</text>
</g>
<text x="5" y="301" style="text-anchor:start">BenchmarkParserAttributeSelector</text>
<g style="font-style:italic;font-size:75%">
<rect x="517" y="307" width="6" height="20" style="fill-opacity:0.3;fill:green"/>
<text x="528" y="322" style="text-anchor:start">-2.20%</text>
</g>
<text x="5" y="327" style="text-anchor:start">BenchmarkParserComplexSelector</text>
<g style="font-style:italic;font-size:75%">
<rect x="517" y="333" width="0" height="20" style="fill-opacity:0.3;fill:red"/>
<text x="512" y="348" style="text-anchor:end">+0.19%</text>
</g>
<text x="5" y="353" style="text-anchor:start">BenchmarkParserMediaQueryAllAndMinWidth</text>
</g>
</svg>
