<?xml version="1.0"?>
<!-- Generated by SVGo -->
<svg width="1024" height="384"
     xmlns="http://www.w3.org/2000/svg" 
     xmlns:xlink="http://www.w3.org/1999/xlink">
<rect x="0" y="0" width="1024" height="384" style="fill:white;stroke-width:2px;stroke:lightgray"/>
<g style="font-size:20px;font-family:sans-serif">
<text x="5" y="5" style="font-size:150%"></text>
<g style="font-style:italic;font-size:75%">
<rect x="472" y="73" width="45" height="20" style="fill-opacity:0.3;fill:red"/>
<text x="467" y="88" style="text-anchor:end">+15.33%</text>
</g>
<text x="5" y="93" style="text-anchor:start">BenchmarkLexerBasic</text>
<g style="font-style:italic;font-size:75%">
<rect x="517" y="99" width="3" height="20" style="fill-opacity:0.3;fill:green"/>
<text x="525" y="114" style="text-anchor:start">-1.01%</text>
</g>
<text x="5" y="119" style="text-anchor:start">BenchmarkLexerTypeSelector</text>
<g style="font-style:italic;font-size:75%">
<rect x="517" y="125" width="18" height="20" style="fill-opacity:0.3;fill:green"/>
<text x="540" y="140" style="text-anchor:start">-6.29%</text>
</g>
<text x="5" y="145" style="text-anchor:start">BenchmarkLexerIdSelector</text>
<g style="font-style:italic;font-size:75%">
<rect x="517" y="151" width="38" height="20" style="fill-opacity:0.3;fill:green"/>
<text x="560" y="166" style="text-anchor:start">-12.74%</text>
</g>
<text x="5" y="171" style="text-anchor:start">BenchmarkLexerClassSelector</text>
<g style="font-style:italic;font-size:75%">
<rect x="509" y="177" width="8" height="20" style="fill-opacity:0.3;fill:red"/>
<text x="504" y="192" style="text-anchor:end">+2.80%</text>
</g>
<text x="5" y="197" style="text-anchor:start">BenchmarkLexerAttributeSelector</text>
<g style="font-style:italic;font-size:75%">
<rect x="507" y="203" width="10" height="20" style="fill-opacity:0.3;fill:red"/>
<text x="502" y="218" style="text-anchor:end">+3.42%</text>
</g>
<text x="5" y="223" style="text-anchor:start">BenchmarkLexerImportRule</text>
<g style="font-style:italic;font-size:75%">
<rect x="517" y="229" width="71" height="20" style="fill-opacity:0.3;fill:green"/>
<text x="593" y="244" style="text-anchor:start">-23.68%</text>
</g>
<text x="5" y="249" style="text-anchor:start">BenchmarkLexerVariableDeclaration</text>
<g style="font-style:italic;font-size:75%">
<rect x="491" y="255" width="26" height="20" style="fill-opacity:0.3;fill:red"/>
<text x="486" y="270" style="text-anchor:end">+8.78%</text>
</g>
<text x="5" y="275" style="text-anchor:start">BenchmarkParserClassSelector</text>
<g style="font-style:italic;font-size:75%">
<rect x="501" y="281" width="16" height="20" style="fill-opacity:0.3;fill:red"/>
<text x="496" y="296" style="text-anchor:end">+5.46%</text>
</g>
<text x="5" y="301" style="text-anchor:start">BenchmarkParserAttributeSelector</text>
<g style="font-style:italic;font-size:75%">
<rect x="475" y="307" width="42" height="20" style="fill-opacity:0.3;fill:red"/>
<text x="470" y="322" style="text-anchor:end">+14.14%</text>
</g>
<text x="5" y="327" style="text-anchor:start">BenchmarkParserComplexSelector</text>
<g style="font-style:italic;font-size:75%">
<rect x="514" y="333" width="3" height="20" style="fill-opacity:0.3;fill:red"/>
<text x="509" y="348" style="text-anchor:end">+1.09%</text>
</g>
<text x="5" y="353" style="text-anchor:start">BenchmarkParserOverAll</text>
</g>
</svg>
