<?xml version="1.0"?>
<!-- Generated by SVGo -->
<svg width="1024" height="384"
     xmlns="http://www.w3.org/2000/svg" 
     xmlns:xlink="http://www.w3.org/1999/xlink">
<rect x="0" y="0" width="1024" height="384" style="fill:white;stroke-width:2px;stroke:lightgray"/>
<g style="font-size:20px;font-family:sans-serif">
<text x="5" y="5" style="font-size:150%"></text>
<g style="font-style:italic;font-size:75%">
<rect x="499" y="73" width="18" height="20" style="fill-opacity:0.3;fill:red"/>
<text x="494" y="88" style="text-anchor:end">+6.00%</text>
</g>
<text x="5" y="93" style="text-anchor:start">BenchmarkLexerBasic</text>
<g style="font-style:italic;font-size:75%">
<rect x="517" y="99" width="32" height="20" style="fill-opacity:0.3;fill:green"/>
<text x="554" y="114" style="text-anchor:start">-10.96%</text>
</g>
<text x="5" y="119" style="text-anchor:start">BenchmarkLexerTypeSelector</text>
<g style="font-style:italic;font-size:75%">
<rect x="517" y="125" width="38" height="20" style="fill-opacity:0.3;fill:green"/>
<text x="560" y="140" style="text-anchor:start">-12.69%</text>
</g>
<text x="5" y="145" style="text-anchor:start">BenchmarkLexerIdSelector</text>
<g style="font-style:italic;font-size:75%">
<rect x="517" y="151" width="29" height="20" style="fill-opacity:0.3;fill:green"/>
<text x="551" y="166" style="text-anchor:start">-9.75%</text>
</g>
<text x="5" y="171" style="text-anchor:start">BenchmarkLexerClassSelector</text>
<g style="font-style:italic;font-size:75%">
<rect x="507" y="177" width="10" height="20" style="fill-opacity:0.3;fill:red"/>
<text x="502" y="192" style="text-anchor:end">+3.35%</text>
</g>
<text x="5" y="197" style="text-anchor:start">BenchmarkLexerAttributeSelector</text>
<g style="font-style:italic;font-size:75%">
<rect x="516" y="203" width="1" height="20" style="fill-opacity:0.3;fill:red"/>
<text x="511" y="218" style="text-anchor:end">+0.37%</text>
</g>
<text x="5" y="223" style="text-anchor:start">BenchmarkLexerImportRule</text>
<g style="font-style:italic;font-size:75%">
<rect x="517" y="229" width="63" height="20" style="fill-opacity:0.3;fill:green"/>
<text x="585" y="244" style="text-anchor:start">-21.05%</text>
</g>
<text x="5" y="249" style="text-anchor:start">BenchmarkLexerVariableDeclaration</text>
<g style="font-style:italic;font-size:75%">
<rect x="507" y="255" width="10" height="20" style="fill-opacity:0.3;fill:red"/>
<text x="502" y="270" style="text-anchor:end">+3.57%</text>
</g>
<text x="5" y="275" style="text-anchor:start">BenchmarkParserClassSelector</text>
<g style="font-style:italic;font-size:75%">
<rect x="507" y="281" width="10" height="20" style="fill-opacity:0.3;fill:red"/>
<text x="502" y="296" style="text-anchor:end">+3.64%</text>
</g>
<text x="5" y="301" style="text-anchor:start">BenchmarkParserAttributeSelector</text>
<g style="font-style:italic;font-size:75%">
<rect x="366" y="307" width="151" height="20" style="fill-opacity:0.3;fill:red"/>
<text x="361" y="322" style="text-anchor:end">+50.55%</text>
</g>
<text x="5" y="327" style="text-anchor:start">BenchmarkParserComplexSelector</text>
<g style="font-style:italic;font-size:75%">
<rect x="486" y="333" width="31" height="20" style="fill-opacity:0.3;fill:red"/>
<text x="481" y="348" style="text-anchor:end">+10.47%</text>
</g>
<text x="5" y="353" style="text-anchor:start">BenchmarkParserOverAll</text>
</g>
</svg>
