<?xml version="1.0"?>
<!-- Generated by SVGo -->
<svg width="1024" height="384"
     xmlns="http://www.w3.org/2000/svg" 
     xmlns:xlink="http://www.w3.org/1999/xlink">
<rect x="0" y="0" width="1024" height="384" style="fill:white;stroke-width:2px;stroke:lightgray"/>
<g style="font-size:20px;font-family:sans-serif">
<text x="5" y="5" style="font-size:150%"></text>
<g style="font-style:italic;font-size:75%">
<rect x="499" y="73" width="18" height="20" style="fill-opacity:0.3;fill:red"/>
<text x="494" y="88" style="text-anchor:end">+6.09%</text>
</g>
<text x="5" y="93" style="text-anchor:start">BenchmarkLexerBasic</text>
<g style="font-style:italic;font-size:75%">
<rect x="500" y="99" width="17" height="20" style="fill-opacity:0.3;fill:red"/>
<text x="495" y="114" style="text-anchor:end">+5.70%</text>
</g>
<text x="5" y="119" style="text-anchor:start">BenchmarkLexerTypeSelector</text>
<g style="font-style:italic;font-size:75%">
<rect x="517" y="125" width="19" height="20" style="fill-opacity:0.3;fill:green"/>
<text x="541" y="140" style="text-anchor:start">-6.54%</text>
</g>
<text x="5" y="145" style="text-anchor:start">BenchmarkLexerIdSelector</text>
<g style="font-style:italic;font-size:75%">
<rect x="517" y="151" width="13" height="20" style="fill-opacity:0.3;fill:green"/>
<text x="535" y="166" style="text-anchor:start">-4.66%</text>
</g>
<text x="5" y="171" style="text-anchor:start">BenchmarkLexerClassSelector</text>
<g style="font-style:italic;font-size:75%">
<rect x="517" y="177" width="18" height="20" style="fill-opacity:0.3;fill:green"/>
<text x="540" y="192" style="text-anchor:start">-6.12%</text>
</g>
<text x="5" y="197" style="text-anchor:start">BenchmarkLexerAttributeSelector</text>
<g style="font-style:italic;font-size:75%">
<rect x="517" y="203" width="8" height="20" style="fill-opacity:0.3;fill:green"/>
<text x="530" y="218" style="text-anchor:start">-2.71%</text>
</g>
<text x="5" y="223" style="text-anchor:start">BenchmarkLexerImportRule</text>
<g style="font-style:italic;font-size:75%">
<rect x="517" y="229" width="73" height="20" style="fill-opacity:0.3;fill:green"/>
<text x="595" y="244" style="text-anchor:start">-24.44%</text>
</g>
<text x="5" y="249" style="text-anchor:start">BenchmarkLexerVariableDeclaration</text>
<g style="font-style:italic;font-size:75%">
<rect x="517" y="255" width="2" height="20" style="fill-opacity:0.3;fill:green"/>
<text x="524" y="270" style="text-anchor:start">-0.83%</text>
</g>
<text x="5" y="275" style="text-anchor:start">BenchmarkParserClassSelector</text>
<g style="font-style:italic;font-size:75%">
<rect x="513" y="281" width="4" height="20" style="fill-opacity:0.3;fill:red"/>
<text x="508" y="296" style="text-anchor:end">+1.50%</text>
</g>
<text x="5" y="301" style="text-anchor:start">BenchmarkParserAttributeSelector</text>
<g style="font-style:italic;font-size:75%">
<rect x="495" y="307" width="22" height="20" style="fill-opacity:0.3;fill:red"/>
<text x="490" y="322" style="text-anchor:end">+7.57%</text>
</g>
<text x="5" y="327" style="text-anchor:start">BenchmarkParserComplexSelector</text>
<g style="font-style:italic;font-size:75%">
<rect x="505" y="333" width="12" height="20" style="fill-opacity:0.3;fill:red"/>
<text x="500" y="348" style="text-anchor:end">+4.26%</text>
</g>
<text x="5" y="353" style="text-anchor:start">BenchmarkParserOverAll</text>
</g>
</svg>
