<?xml version="1.0"?>
<!-- Generated by SVGo -->
<svg width="1024" height="410"
     xmlns="http://www.w3.org/2000/svg" 
     xmlns:xlink="http://www.w3.org/1999/xlink">
<rect x="0" y="0" width="1024" height="410" style="fill:white;stroke-width:2px;stroke:lightgray"/>
<g style="font-size:20px;font-family:sans-serif">
<text x="5" y="5" style="font-size:150%"></text>
<g style="font-style:italic;font-size:75%">
<rect x="517" y="73" width="10" height="20" style="fill-opacity:0.3;fill:green"/>
<text x="532" y="88" style="text-anchor:start">-3.49%</text>
</g>
<text x="5" y="93" style="text-anchor:start">BenchmarkLexerBasic</text>
<g style="font-style:italic;font-size:75%">
<rect x="488" y="99" width="29" height="20" style="fill-opacity:0.3;fill:red"/>
<text x="483" y="114" style="text-anchor:end">+9.78%</text>
</g>
<text x="5" y="119" style="text-anchor:start">BenchmarkLexerTypeSelector</text>
<g style="font-style:italic;font-size:75%">
<rect x="514" y="125" width="3" height="20" style="fill-opacity:0.3;fill:red"/>
<text x="509" y="140" style="text-anchor:end">+1.31%</text>
</g>
<text x="5" y="145" style="text-anchor:start">BenchmarkLexerIdSelector</text>
<g style="font-style:italic;font-size:75%">
<rect x="517" y="151" width="29" height="20" style="fill-opacity:0.3;fill:green"/>
<text x="551" y="166" style="text-anchor:start">-9.88%</text>
</g>
<text x="5" y="171" style="text-anchor:start">BenchmarkLexerClassSelector</text>
<g style="font-style:italic;font-size:75%">
<rect x="517" y="177" width="19" height="20" style="fill-opacity:0.3;fill:green"/>
<text x="541" y="192" style="text-anchor:start">-6.40%</text>
</g>
<text x="5" y="197" style="text-anchor:start">BenchmarkLexerAttributeSelector</text>
<g style="font-style:italic;font-size:75%">
<rect x="517" y="203" width="7" height="20" style="fill-opacity:0.3;fill:green"/>
<text x="529" y="218" style="text-anchor:start">-2.61%</text>
</g>
<text x="5" y="223" style="text-anchor:start">BenchmarkLexerImportRule</text>
<g style="font-style:italic;font-size:75%">
<rect x="517" y="229" width="14" height="20" style="fill-opacity:0.3;fill:green"/>
<text x="536" y="244" style="text-anchor:start">-4.71%</text>
</g>
<text x="5" y="249" style="text-anchor:start">BenchmarkLexerVariableDeclaration</text>
<g style="font-style:italic;font-size:75%">
<rect x="516" y="255" width="1" height="20" style="fill-opacity:0.3;fill:red"/>
<text x="511" y="270" style="text-anchor:end">+0.59%</text>
</g>
<text x="5" y="275" style="text-anchor:start">BenchmarkParserClassSelector</text>
<g style="font-style:italic;font-size:75%">
<rect x="510" y="281" width="7" height="20" style="fill-opacity:0.3;fill:red"/>
<text x="505" y="296" style="text-anchor:end">+2.52%</text>
</g>
<text x="5" y="301" style="text-anchor:start">BenchmarkParserAttributeSelector</text>
<g style="font-style:italic;font-size:75%">
<rect x="517" y="307" width="12" height="20" style="fill-opacity:0.3;fill:green"/>
<text x="534" y="322" style="text-anchor:start">-4.24%</text>
</g>
<text x="5" y="327" style="text-anchor:start">BenchmarkParserComplexSelector</text>
<g style="font-style:italic;font-size:75%">
<rect x="440" y="333" width="77" height="20" style="fill-opacity:0.3;fill:red"/>
<text x="435" y="348" style="text-anchor:end">+25.68%</text>
</g>
<text x="5" y="353" style="text-anchor:start">BenchmarkParserMediaQueryAllAndMinWidth</text>
<g style="font-style:italic;font-size:75%">
<rect x="517" y="359" width="11" height="20" style="fill-opacity:0.3;fill:green"/>
<text x="533" y="374" style="text-anchor:start">-3.87%</text>
</g>
<text x="5" y="379" style="text-anchor:start">BenchmarkParserOverAll</text>
</g>
</svg>
