<?xml version="1.0"?>
<!-- Generated by SVGo -->
<svg width="1024" height="384"
     xmlns="http://www.w3.org/2000/svg" 
     xmlns:xlink="http://www.w3.org/1999/xlink">
<rect x="0" y="0" width="1024" height="384" style="fill:white;stroke-width:2px;stroke:lightgray"/>
<g style="font-size:20px;font-family:sans-serif">
<text x="5" y="5" style="font-size:150%"></text>
<g style="font-style:italic;font-size:75%">
<rect x="504" y="73" width="13" height="20" style="fill-opacity:0.3;fill:red"/>
<text x="499" y="88" style="text-anchor:end">+4.36%</text>
</g>
<text x="5" y="93" style="text-anchor:start">BenchmarkLexerBasic</text>
<g style="font-style:italic;font-size:75%">
<rect x="517" y="99" width="27" height="20" style="fill-opacity:0.3;fill:green"/>
<text x="549" y="114" style="text-anchor:start">-9.23%</text>
</g>
<text x="5" y="119" style="text-anchor:start">BenchmarkLexerTypeSelector</text>
<g style="font-style:italic;font-size:75%">
<rect x="517" y="125" width="26" height="20" style="fill-opacity:0.3;fill:green"/>
<text x="548" y="140" style="text-anchor:start">-8.74%</text>
</g>
<text x="5" y="145" style="text-anchor:start">BenchmarkLexerIdSelector</text>
<g style="font-style:italic;font-size:75%">
<rect x="517" y="151" width="44" height="20" style="fill-opacity:0.3;fill:green"/>
<text x="566" y="166" style="text-anchor:start">-14.86%</text>
</g>
<text x="5" y="171" style="text-anchor:start">BenchmarkLexerClassSelector</text>
<g style="font-style:italic;font-size:75%">
<rect x="517" y="177" width="15" height="20" style="fill-opacity:0.3;fill:green"/>
<text x="537" y="192" style="text-anchor:start">-5.30%</text>
</g>
<text x="5" y="197" style="text-anchor:start">BenchmarkLexerAttributeSelector</text>
<g style="font-style:italic;font-size:75%">
<rect x="517" y="203" width="9" height="20" style="fill-opacity:0.3;fill:green"/>
<text x="531" y="218" style="text-anchor:start">-3.21%</text>
</g>
<text x="5" y="223" style="text-anchor:start">BenchmarkLexerImportRule</text>
<g style="font-style:italic;font-size:75%">
<rect x="517" y="229" width="66" height="20" style="fill-opacity:0.3;fill:green"/>
<text x="588" y="244" style="text-anchor:start">-22.21%</text>
</g>
<text x="5" y="249" style="text-anchor:start">BenchmarkLexerVariableDeclaration</text>
<g style="font-style:italic;font-size:75%">
<rect x="469" y="255" width="48" height="20" style="fill-opacity:0.3;fill:red"/>
<text x="464" y="270" style="text-anchor:end">+16.27%</text>
</g>
<text x="5" y="275" style="text-anchor:start">BenchmarkParserClassSelector</text>
<g style="font-style:italic;font-size:75%">
<rect x="512" y="281" width="5" height="20" style="fill-opacity:0.3;fill:red"/>
<text x="507" y="296" style="text-anchor:end">+1.67%</text>
</g>
<text x="5" y="301" style="text-anchor:start">BenchmarkParserAttributeSelector</text>
<g style="font-style:italic;font-size:75%">
<rect x="479" y="307" width="38" height="20" style="fill-opacity:0.3;fill:red"/>
<text x="474" y="322" style="text-anchor:end">+12.79%</text>
</g>
<text x="5" y="327" style="text-anchor:start">BenchmarkParserComplexSelector</text>
<g style="font-style:italic;font-size:75%">
<rect x="424" y="333" width="93" height="20" style="fill-opacity:0.3;fill:red"/>
<text x="419" y="348" style="text-anchor:end">+31.30%</text>
</g>
<text x="5" y="353" style="text-anchor:start">BenchmarkParserOverAll</text>
</g>
</svg>
