<?xml version="1.0"?>
<!-- Generated by SVGo -->
<svg width="1024" height="384"
     xmlns="http://www.w3.org/2000/svg" 
     xmlns:xlink="http://www.w3.org/1999/xlink">
<rect x="0" y="0" width="1024" height="384" style="fill:white;stroke-width:2px;stroke:lightgray"/>
<g style="font-size:20px;font-family:sans-serif">
<text x="5" y="5" style="font-size:150%"></text>
<g style="font-style:italic;font-size:75%">
<rect x="517" y="73" width="1" height="20" style="fill-opacity:0.3;fill:green"/>
<text x="523" y="88" style="text-anchor:start">-0.42%</text>
</g>
<text x="5" y="93" style="text-anchor:start">BenchmarkLexerBasic</text>
<g style="font-style:italic;font-size:75%">
<rect x="517" y="99" width="34" height="20" style="fill-opacity:0.3;fill:green"/>
<text x="556" y="114" style="text-anchor:start">-11.54%</text>
</g>
<text x="5" y="119" style="text-anchor:start">BenchmarkLexerTypeSelector</text>
<g style="font-style:italic;font-size:75%">
<rect x="517" y="125" width="18" height="20" style="fill-opacity:0.3;fill:green"/>
<text x="540" y="140" style="text-anchor:start">-6.26%</text>
</g>
<text x="5" y="145" style="text-anchor:start">BenchmarkLexerIdSelector</text>
<g style="font-style:italic;font-size:75%">
<rect x="517" y="151" width="21" height="20" style="fill-opacity:0.3;fill:green"/>
<text x="543" y="166" style="text-anchor:start">-7.31%</text>
</g>
<text x="5" y="171" style="text-anchor:start">BenchmarkLexerClassSelector</text>
<g style="font-style:italic;font-size:75%">
<rect x="517" y="177" width="20" height="20" style="fill-opacity:0.3;fill:green"/>
<text x="542" y="192" style="text-anchor:start">-6.77%</text>
</g>
<text x="5" y="197" style="text-anchor:start">BenchmarkLexerAttributeSelector</text>
<g style="font-style:italic;font-size:75%">
<rect x="517" y="203" width="4" height="20" style="fill-opacity:0.3;fill:green"/>
<text x="526" y="218" style="text-anchor:start">-1.56%</text>
</g>
<text x="5" y="223" style="text-anchor:start">BenchmarkLexerImportRule</text>
<g style="font-style:italic;font-size:75%">
<rect x="494" y="229" width="23" height="20" style="fill-opacity:0.3;fill:red"/>
<text x="489" y="244" style="text-anchor:end">+7.79%</text>
</g>
<text x="5" y="249" style="text-anchor:start">BenchmarkLexerVariableDeclaration</text>
<g style="font-style:italic;font-size:75%">
<rect x="517" y="255" width="0" height="20" style="fill-opacity:0.3;fill:red"/>
<text x="512" y="270" style="text-anchor:end">+0.01%</text>
</g>
<text x="5" y="275" style="text-anchor:start">BenchmarkParserClassSelector</text>
<g style="font-style:italic;font-size:75%">
<rect x="517" y="281" width="8" height="20" style="fill-opacity:0.3;fill:green"/>
<text x="530" y="296" style="text-anchor:start">-2.90%</text>
</g>
<text x="5" y="301" style="text-anchor:start">BenchmarkParserAttributeSelector</text>
<g style="font-style:italic;font-size:75%">
<rect x="516" y="307" width="1" height="20" style="fill-opacity:0.3;fill:red"/>
<text x="511" y="322" style="text-anchor:end">+0.49%</text>
</g>
<text x="5" y="327" style="text-anchor:start">BenchmarkParserComplexSelector</text>
<g style="font-style:italic;font-size:75%">
<rect x="498" y="333" width="19" height="20" style="fill-opacity:0.3;fill:red"/>
<text x="493" y="348" style="text-anchor:end">+6.39%</text>
</g>
<text x="5" y="353" style="text-anchor:start">BenchmarkParserMediaQueryAllAndMinWidth</text>
</g>
</svg>
