<?xml version="1.0"?>
<!-- Generated by SVGo -->
<svg width="1024" height="384"
     xmlns="http://www.w3.org/2000/svg" 
     xmlns:xlink="http://www.w3.org/1999/xlink">
<rect x="0" y="0" width="1024" height="384" style="fill:white;stroke-width:2px;stroke:lightgray"/>
<g style="font-size:20px;font-family:sans-serif">
<text x="5" y="5" style="font-size:150%"></text>
<g style="font-style:italic;font-size:75%">
<rect x="513" y="73" width="4" height="20" style="fill-opacity:0.3;fill:red"/>
<text x="508" y="88" style="text-anchor:end">+1.55%</text>
</g>
<text x="5" y="93" style="text-anchor:start">BenchmarkLexerBasic</text>
<g style="font-style:italic;font-size:75%">
<rect x="502" y="99" width="15" height="20" style="fill-opacity:0.3;fill:red"/>
<text x="497" y="114" style="text-anchor:end">+5.17%</text>
</g>
<text x="5" y="119" style="text-anchor:start">BenchmarkLexerTypeSelector</text>
<g style="font-style:italic;font-size:75%">
<rect x="517" y="125" width="35" height="20" style="fill-opacity:0.3;fill:green"/>
<text x="557" y="140" style="text-anchor:start">-11.97%</text>
</g>
<text x="5" y="145" style="text-anchor:start">BenchmarkLexerIdSelector</text>
<g style="font-style:italic;font-size:75%">
<rect x="517" y="151" width="0" height="20" style="fill-opacity:0.3;fill:red"/>
<text x="512" y="166" style="text-anchor:end">+0.33%</text>
</g>
<text x="5" y="171" style="text-anchor:start">BenchmarkLexerClassSelector</text>
<g style="font-style:italic;font-size:75%">
<rect x="511" y="177" width="6" height="20" style="fill-opacity:0.3;fill:red"/>
<text x="506" y="192" style="text-anchor:end">+2.00%</text>
</g>
<text x="5" y="197" style="text-anchor:start">BenchmarkLexerAttributeSelector</text>
<g style="font-style:italic;font-size:75%">
<rect x="502" y="203" width="15" height="20" style="fill-opacity:0.3;fill:red"/>
<text x="497" y="218" style="text-anchor:end">+5.24%</text>
</g>
<text x="5" y="223" style="text-anchor:start">BenchmarkLexerImportRule</text>
<g style="font-style:italic;font-size:75%">
<rect x="517" y="229" width="64" height="20" style="fill-opacity:0.3;fill:green"/>
<text x="586" y="244" style="text-anchor:start">-21.58%</text>
</g>
<text x="5" y="249" style="text-anchor:start">BenchmarkLexerVariableDeclaration</text>
<g style="font-style:italic;font-size:75%">
<rect x="498" y="255" width="19" height="20" style="fill-opacity:0.3;fill:red"/>
<text x="493" y="270" style="text-anchor:end">+6.63%</text>
</g>
<text x="5" y="275" style="text-anchor:start">BenchmarkParserClassSelector</text>
<g style="font-style:italic;font-size:75%">
<rect x="481" y="281" width="36" height="20" style="fill-opacity:0.3;fill:red"/>
<text x="476" y="296" style="text-anchor:end">+12.24%</text>
</g>
<text x="5" y="301" style="text-anchor:start">BenchmarkParserAttributeSelector</text>
<g style="font-style:italic;font-size:75%">
<rect x="467" y="307" width="50" height="20" style="fill-opacity:0.3;fill:red"/>
<text x="462" y="322" style="text-anchor:end">+16.99%</text>
</g>
<text x="5" y="327" style="text-anchor:start">BenchmarkParserComplexSelector</text>
<g style="font-style:italic;font-size:75%">
<rect x="508" y="333" width="9" height="20" style="fill-opacity:0.3;fill:red"/>
<text x="503" y="348" style="text-anchor:end">+3.08%</text>
</g>
<text x="5" y="353" style="text-anchor:start">BenchmarkParserOverAll</text>
</g>
</svg>
