<?xml version="1.0"?>
<!-- Generated by SVGo -->
<svg width="1024" height="410"
     xmlns="http://www.w3.org/2000/svg" 
     xmlns:xlink="http://www.w3.org/1999/xlink">
<rect x="0" y="0" width="1024" height="410" style="fill:white;stroke-width:2px;stroke:lightgray"/>
<g style="font-size:20px;font-family:sans-serif">
<text x="5" y="5" style="font-size:150%"></text>
<g style="font-style:italic;font-size:75%">
<rect x="517" y="73" width="10" height="20" style="fill-opacity:0.3;fill:green"/>
<text x="532" y="88" style="text-anchor:start">-3.60%</text>
</g>
<text x="5" y="93" style="text-anchor:start">BenchmarkLexerBasic</text>
<g style="font-style:italic;font-size:75%">
<rect x="517" y="99" width="78" height="20" style="fill-opacity:0.3;fill:green"/>
<text x="600" y="114" style="text-anchor:start">-26.17%</text>
</g>
<text x="5" y="119" style="text-anchor:start">BenchmarkLexerTypeSelector</text>
<g style="font-style:italic;font-size:75%">
<rect x="517" y="125" width="73" height="20" style="fill-opacity:0.3;fill:green"/>
<text x="595" y="140" style="text-anchor:start">-24.42%</text>
</g>
<text x="5" y="145" style="text-anchor:start">BenchmarkLexerIdSelector</text>
<g style="font-style:italic;font-size:75%">
<rect x="517" y="151" width="24" height="20" style="fill-opacity:0.3;fill:green"/>
<text x="546" y="166" style="text-anchor:start">-8.01%</text>
</g>
<text x="5" y="171" style="text-anchor:start">BenchmarkLexerClassSelector</text>
<g style="font-style:italic;font-size:75%">
<rect x="517" y="177" width="23" height="20" style="fill-opacity:0.3;fill:green"/>
<text x="545" y="192" style="text-anchor:start">-7.73%</text>
</g>
<text x="5" y="197" style="text-anchor:start">BenchmarkLexerAttributeSelector</text>
<g style="font-style:italic;font-size:75%">
<rect x="517" y="203" width="2" height="20" style="fill-opacity:0.3;fill:green"/>
<text x="524" y="218" style="text-anchor:start">-0.78%</text>
</g>
<text x="5" y="223" style="text-anchor:start">BenchmarkLexerImportRule</text>
<g style="font-style:italic;font-size:75%">
<rect x="517" y="229" width="31" height="20" style="fill-opacity:0.3;fill:green"/>
<text x="553" y="244" style="text-anchor:start">-10.55%</text>
</g>
<text x="5" y="249" style="text-anchor:start">BenchmarkLexerVariableDeclaration</text>
<g style="font-style:italic;font-size:75%">
<rect x="517" y="255" width="33" height="20" style="fill-opacity:0.3;fill:green"/>
<text x="555" y="270" style="text-anchor:start">-11.15%</text>
</g>
<text x="5" y="275" style="text-anchor:start">BenchmarkParserClassSelector</text>
<g style="font-style:italic;font-size:75%">
<rect x="517" y="281" width="26" height="20" style="fill-opacity:0.3;fill:green"/>
<text x="548" y="296" style="text-anchor:start">-8.68%</text>
</g>
<text x="5" y="301" style="text-anchor:start">BenchmarkParserAttributeSelector</text>
<g style="font-style:italic;font-size:75%">
<rect x="517" y="307" width="30" height="20" style="fill-opacity:0.3;fill:green"/>
<text x="552" y="322" style="text-anchor:start">-10.32%</text>
</g>
<text x="5" y="327" style="text-anchor:start">BenchmarkParserComplexSelector</text>
<g style="font-style:italic;font-size:75%">
<rect x="517" y="333" width="50" height="20" style="fill-opacity:0.3;fill:green"/>
<text x="572" y="348" style="text-anchor:start">-16.71%</text>
</g>
<text x="5" y="353" style="text-anchor:start">BenchmarkParserMediaQueryAllAndMinWidth</text>
<g style="font-style:italic;font-size:75%">
<rect x="517" y="359" width="56" height="20" style="fill-opacity:0.3;fill:green"/>
<text x="578" y="374" style="text-anchor:start">-18.97%</text>
</g>
<text x="5" y="379" style="text-anchor:start">BenchmarkParserOverAll</text>
</g>
</svg>
