<?xml version="1.0"?>
<!-- Generated by SVGo -->
<svg width="1024" height="332"
     xmlns="http://www.w3.org/2000/svg" 
     xmlns:xlink="http://www.w3.org/1999/xlink">
<rect x="0" y="0" width="1024" height="332" style="fill:white;stroke-width:2px;stroke:lightgray"/>
<g style="font-size:20px;font-family:sans-serif">
<text x="5" y="5" style="font-size:150%"></text>
<g style="font-style:italic;font-size:75%">
<rect x="517" y="73" width="5" height="20" style="fill-opacity:0.3;fill:green"/>
<text x="527" y="88" style="text-anchor:start">-1.85%</text>
</g>
<text x="5" y="93" style="text-anchor:start">BenchmarkLexerBasic</text>
<g style="font-style:italic;font-size:75%">
<rect x="499" y="99" width="18" height="20" style="fill-opacity:0.3;fill:red"/>
<text x="494" y="114" style="text-anchor:end">+6.22%</text>
</g>
<text x="5" y="119" style="text-anchor:start">BenchmarkLexerTypeSelector</text>
<g style="font-style:italic;font-size:75%">
<rect x="517" y="125" width="28" height="20" style="fill-opacity:0.3;fill:green"/>
<text x="550" y="140" style="text-anchor:start">-9.37%</text>
</g>
<text x="5" y="145" style="text-anchor:start">BenchmarkLexerIdSelector</text>
<g style="font-style:italic;font-size:75%">
<rect x="517" y="151" width="12" height="20" style="fill-opacity:0.3;fill:green"/>
<text x="534" y="166" style="text-anchor:start">-4.18%</text>
</g>
<text x="5" y="171" style="text-anchor:start">BenchmarkLexerClassSelector</text>
<g style="font-style:italic;font-size:75%">
<rect x="515" y="177" width="2" height="20" style="fill-opacity:0.3;fill:red"/>
<text x="510" y="192" style="text-anchor:end">+0.80%</text>
</g>
<text x="5" y="197" style="text-anchor:start">BenchmarkLexerAttributeSelector</text>
<g style="font-style:italic;font-size:75%">
<rect x="511" y="203" width="6" height="20" style="fill-opacity:0.3;fill:red"/>
<text x="506" y="218" style="text-anchor:end">+2.13%</text>
</g>
<text x="5" y="223" style="text-anchor:start">BenchmarkLexerImportRule</text>
<g style="font-style:italic;font-size:75%">
<rect x="517" y="229" width="11" height="20" style="fill-opacity:0.3;fill:green"/>
<text x="533" y="244" style="text-anchor:start">-3.74%</text>
</g>
<text x="5" y="249" style="text-anchor:start">BenchmarkLexerVariableDeclaration</text>
<g style="font-style:italic;font-size:75%">
<rect x="499" y="255" width="18" height="20" style="fill-opacity:0.3;fill:red"/>
<text x="494" y="270" style="text-anchor:end">+6.28%</text>
</g>
<text x="5" y="275" style="text-anchor:start">BenchmarkParserComplexSelector</text>
<g style="font-style:italic;font-size:75%">
<rect x="472" y="281" width="45" height="20" style="fill-opacity:0.3;fill:red"/>
<text x="467" y="296" style="text-anchor:end">+15.09%</text>
</g>
<text x="5" y="301" style="text-anchor:start">BenchmarkParserOverAll</text>
</g>
</svg>
